<svg xmlns="http://www.w3.org/2000/svg" xmlns:xlink="http://www.w3.org/1999/xlink" version="1.1" id="Calque_1" x="0px" y="0px" style="enable-background:new 0 0 841.9 595.3;" xml:space="preserve" viewBox="315.5 165.5 211.7 265.1">
<style type="text/css">
	.st0{fill:#FFFFFF;}
	.st1{fill:#E1AE00;}
</style>
<g>
	<g>
		<path class="st0" d="M404,165.5h-88.2v100.2c1.5-12.8,7.4-24.1,16.9-33c1.4-1.3,2.8-2.5,4.3-3.8V185h63.6    c73,0,103.8,53.8,103.8,111.9c0,65.2-34.2,114.2-103.9,114.2H337v-0.1l-21.2,0v19.6h87.8c74.4,0,123.6-55.7,123.6-134.8    C527.2,216.2,476.8,165.5,404,165.5z"/>
		<path class="st1" d="M315.5,270v4.1c0.1,1.5,0.2,3,0.3,4.5v-12.9C315.6,267.1,315.5,268.6,315.5,270z"/>
	</g>
	<g>
		<path class="st1" d="M426.1,404.9c6.4-2.3,12.2-5.1,17.3-8.5c3-2,5.7-4.2,8.2-6.6c10.7-9.9,16.9-22.7,17.5-37.3l0-4.1    c-0.4-15.6-6.8-27.5-17-36.7c-2.5-2.3-5.2-4.5-8.1-6.4c-5.2-3.5-11-6.5-17.2-9.1c-5.6-2.3-11.5-4.3-17.6-6.1    c-0.4-0.1-0.7-0.2-1-0.3l0-0.1c-24.9-7.9-37.1-11.4-37.1-21.7c0-8.3,9.2-13.5,25.3-13.5c0.1,0,0.1,0,0.2,0v-43.5    c-14.5,0.1-27.4,2.3-38.5,6.3c-6.4,2.3-12.2,5.2-17.3,8.6c-1.3,0.9-2.6,1.9-3.9,2.9c-1.5,1.2-2.9,2.5-4.3,3.8    c-9.6,9-15.4,20.2-16.9,33v12.9c1.5,13.4,7.7,23.8,16.9,32.1c1.4,1.2,2.8,2.4,4.3,3.6c1.2,1,2.5,1.9,3.9,2.8    c5.2,3.4,11,6.4,17.3,9c5.6,2.3,11.5,4.3,17.6,6c0.3,0.1,0.5,0.1,0.7,0.2l0,0c24.8,8.1,37,11.7,36.9,21.9    c-0.1,8.3-9.3,13.5-25.4,13.4c-0.7,0-1.4,0-2.2,0l-48.8-0.1h-21.2V411l21.2,0l49.8,0C401.7,411.1,414.8,408.9,426.1,404.9z"/>
	</g>
</g>
</svg>